# xmcd
#
# Track frame offsets:
#	150
#	14615
#	27730
#	39400
#	50767
#	65267
#	78713
#	91669
#	102430
#	115482
#	125175
#	137482
#	151420
#	164647
#	178651
#	191044
#	203299
#	214657
#	228138
#	240591
#	251932
#	266592
#
# Disc length: 3727 seconds
#
# Revision: 0
# Processed by: cddbd v1.5.2PL0 Copyright (c) Steve Scherf et al.
# Submitted via: audiograbber 1.83.01
#
DISCID=3e0e8d16
DTITLE=Various Artist - Blues, Blues Christmas (Volume 2 - 1926 - 1958 [CD2])
DYEAR=2009
DGENRE=Holiday
TTITLE0=Oscar McLollie and His Honey Jumpers - God Gave Us Christmas
TTITLE1=Lowell Fulson - Good Party Shuffle (Christmas Party Shuffle)
TTITLE2=Lester Williams - Winter Time Blues
TTITLE3=The Marshall Brothers - Mr. Santa Boogie
TTITLE4=Wings Over Jordan - Sweet Little Jesus Boy
TTITLE5=Fats Waller - Swingin' Them Jungle Bells
TTITLE6=Lucy Smith Jubilee Singers - Seeking For Me
TTITLE7=Smokey Hogg - My Christmas Baby
TTITLE8=Gatemouth Moore - Christmas Blues
TTITLE9=The Orioles - Oh Holy Night
TTITLE10=Alphabetical Four - Go Where I Send Thee
TTITLE11=Mary Harris - No Chrsitmas blues
TTITLE12=Little Willie Littlefield - Merry Xmas
TTITLE13=Rev. A. W. Nix - Begin A New Life On Christmas Day - Part 1
TTITLE14=Casey Bill and His Orchestra - Christmas Time Blues
TTITLE15=Johnny Moore's Three Blazers (Charles Brown, vocal) - Merry Christmas 
TTITLE15=Baby
TTITLE16=Sister Rosetta Tharpe - When They Ring The Golden Bell
TTITLE17=Elkins-Payne Jubilee Singers - Silent Night Holy Night
TTITLE18=Slim Seward and Fat Boy Hayes - Christmas Time Blues
TTITLE19=The Voices - Santa Claus Baby
TTITLE20=Chuck Berry - Merry Christmas Baby
TTITLE21=The Orioles - What Are You Doing New Year's Eve
EXTD=
EXTT0=
EXTT1=
EXTT2=
EXTT3=
EXTT4=
EXTT5=
EXTT6=
EXTT7=
EXTT8=
EXTT9=
EXTT10=
EXTT11=
EXTT12=
EXTT13=
EXTT14=
EXTT15=
EXTT16=
EXTT17=
EXTT18=
EXTT19=
EXTT20=
EXTT21=
PLAYORDER=
